{
  "accessors": [
    {
      "bufferView": 2,
      "componentType": 5126,
      "count": 850,
      "max": [
        0.04360306262969971,
        0.26599135994911194,
        0.27002888917922974
      ],
      "min": [
        -1.5190916061401367,
        -3.185788154602051,
        -0.26766377687454224
      ],
      "type": "VEC3"
    },
    {
      "bufferView": 2,
      "byteOffset": 10200,
      "componentType": 5126,
      "count": 850,
      "max": [
        1.0,
        1.0,
        1.0
      ],
      "min": [
        -1.0,
        -1.0,
        -1.0
      ],
      "type": "VEC3"
    },
    {
      "bufferView": 3,
      "componentType": 5126,
      "count": 850,
      "max": [
        0.9999324679374695,
        0.998073935508728,
        0.8976246118545532,
        1.0
      ],
      "min": [
        -1.0,
        -0.9999995231628418,
        -0.9238789677619934,
        1.0
      ],
      "type": "VEC4"
    },
    {
      "bufferView": 1,
      "componentType": 5126,
      "count": 850,
      "max": [
        0.9919043183326721,
        0.8751075267791748
      ],
      "min": [
        0.0024157115258276463,
        0.011997580528259277
      ],
      "type": "VEC2"
    },
    {
      "bufferView": 0,
      "componentType": 5125,
      "count": 3240,
      "type": "SCALAR"
    },
    {
      "bufferView": 2,
      "byteOffset": 20400,
      "componentType": 5126,
      "count": 8213,
      "max": [
        0.24230843782424927,
        2.814483642578125,
        1.9441732168197632
      ],
      "min": [
        -1.9236032962799072,
        -3.673384666442871,
        -0.17064613103866577
      ],
      "type": "VEC3"
    },
    {
      "bufferView": 2,
      "byteOffset": 118956,
      "componentType": 5126,
      "count": 8213,
      "max": [
        1.0,
        1.0,
        1.0
      ],
      "min": [
        -1.0,
        -1.0,
        -1.0
      ],
      "type": "VEC3"
    },
    {
      "bufferView": 3,
      "byteOffset": 13600,
      "componentType": 5126,
      "count": 8213,
      "max": [
        1.0,
        1.0,
        1.0,
        1.0
      ],
      "min": [
        -1.0,
        -1.0,
        -1.0,
        -1.0
      ],
      "type": "VEC4"
    },
    {
      "bufferView": 1,
      "byteOffset": 6800,
      "componentType": 5126,
      "count": 8213,
      "max": [
        0.9970536828041077,
        0.9975742697715759
      ],
      "min": [
        0.0023929974995553493,
        0.002391766756772995
      ],
      "type": "VEC2"
    },
    {
      "bufferView": 0,
      "byteOffset": 12960,
      "componentType": 5125,
      "count": 19758,
      "type": "SCALAR"
    },
    {
      "bufferView": 2,
      "byteOffset": 217512,
      "componentType": 5126,
      "count": 722,
      "max": [
        0.22677618265151978,
        2.664900064468384,
        1.4240301847457886
      ],
      "min": [
        -1.8787879943847656,
        -3.448786973953247,
        0.8859127759933472
      ],
      "type": "VEC3"
    },
    {
      "bufferView": 2,
      "byteOffset": 226176,
      "componentType": 5126,
      "count": 722,
      "max": [
        1.0,
        0.9999997615814209,
        0.9893807768821716
      ],
      "min": [
        -0.9999998211860657,
        -0.9893746376037598,
        -0.9893870949745178
      ],
      "type": "VEC3"
    },
    {
      "bufferView": 3,
      "byteOffset": 145008,
      "componentType": 5126,
      "count": 722,
      "max": [
        0.9992990493774414,
        1.0,
        1.0,
        1.0
      ],
      "min": [
        -0.9999933242797852,
        -1.0,
        -1.0,
        1.0
      ],
      "type": "VEC4"
    },
    {
      "bufferView": 1,
      "byteOffset": 72504,
      "componentType": 5126,
      "count": 722,
      "max": [
        0.9930341243743896,
        0.9897258877754211
      ],
      "min": [
        0.002392490627244115,
        0.002395784016698599
      ],
      "type": "VEC2"
    },
    {
      "bufferView": 0,
      "byteOffset": 91992,
      "componentType": 5125,
      "count": 1815,
      "type": "SCALAR"
    },
    {
      "bufferView": 2,
      "byteOffset": 234840,
      "componentType": 5126,
      "count": 634,
      "max": [
        0.08590459823608398,
        2.369016408920288,
        1.6038670539855957
      ],
      "min": [
        -1.5684000253677368,
        -3.6494550704956055,
        0.0801628828048706
      ],
      "type": "VEC3"
    },
    {
      "bufferView": 2,
      "byteOffset": 242448,
      "componentType": 5126,
      "count": 634,
      "max": [
        0.992457926273346,
        0.9562907218933105,
        0.9839527010917664
      ],
      "min": [
        -0.9924575090408325,
        -0.9891240000724792,
        -0.9580457210540771
      ],
      "type": "VEC3"
    },
    {
      "bufferView": 3,
      "byteOffset": 156560,
      "componentType": 5126,
      "count": 634,
      "max": [
        0.9991404414176941,
        0.9991413950920105,
        0.9961832165718079,
        1.0
      ],
      "min": [
        -0.9993384480476379,
        -0.9991411566734314,
        -0.9961826205253601,
        -1.0
      ],
      "type": "VEC4"
    },
    {
      "bufferView": 1,
      "byteOffset": 78280,
      "componentType": 5126,
      "count": 634,
      "max": [
        0.9971100687980652,
        0.9910871386528015
      ],
      "min": [
        0.010721630416810513,
        0.002399629447609186
      ],
      "type": "VEC2"
    },
    {
      "bufferView": 0,
      "byteOffset": 99252,
      "componentType": 5125,
      "count": 1395,
      "type": "SCALAR"
    },
    {
      "bufferView": 2,
      "byteOffset": 250056,
      "componentType": 5126,
      "count": 4820,
      "max": [
        0.0903773307800293,
        2.685277223587036,
        1.9923193454742432
      ],
      "min": [
        -1.5728727579116821,
        -3.673227071762085,
        -0.01853322982788086
      ],
      "type": "VEC3"
    },
    {
      "bufferView": 2,
      "byteOffset": 307896,
      "componentType": 5126,
      "count": 4820,
      "max": [
        1.0,
        1.0,
        1.0
      ],
      "min": [
        -1.0,
        -1.0,
        -1.0
      ],
      "type": "VEC3"
    },
    {
      "bufferView": 3,
      "byteOffset": 166704,
      "componentType": 5126,
      "count": 4820,
      "max": [
        1.0,
        1.0,
        1.0,
        1.0
      ],
      "min": [
        -1.0,
        -1.0,
        -1.0,
        -1.0
      ],
      "type": "VEC4"
    },
    {
      "bufferView": 1,
      "byteOffset": 83352,
      "componentType": 5126,
      "count": 4820,
      "max": [
        0.9976047277450562,
        0.9944453835487366
      ],
      "min": [
        0.002392481081187725,
        0.0023918983060866594
      ],
      "type": "VEC2"
    },
    {
      "bufferView": 0,
      "byteOffset": 104832,
      "componentType": 5125,
      "count": 15102,
      "type": "SCALAR"
    },
    {
      "bufferView": 2,
      "byteOffset": 365736,
      "componentType": 5126,
      "count": 3755,
      "max": [
        0.05402034521102905,
        2.6759960651397705,
        1.4461009502410889
      ],
      "min": [
        -1.5365149974822998,
        -3.665142297744751,
        0.2512080669403076
      ],
      "type": "VEC3"
    },
    {
      "bufferView": 2,
      "byteOffset": 410796,
      "componentType": 5126,
      "count": 3755,
      "max": [
        1.0,
        0.9999874830245972,
        1.0
      ],
      "min": [
        -0.9999998211860657,
        -0.9997491240501404,
        -1.0
      ],
      "type": "VEC3"
    },
    {
      "bufferView": 3,
      "byteOffset": 243824,
      "componentType": 5126,
      "count": 3755,
      "max": [
        1.0,
        1.0,
        1.0,
        1.0
      ],
      "min": [
        -1.0,
        -1.0,
        -1.0,
        1.0
      ],
      "type": "VEC4"
    },
    {
      "bufferView": 1,
      "byteOffset": 121912,
      "componentType": 5126,
      "count": 3755,
      "max": [
        0.9971397519111633,
        0.9908667206764221
      ],
      "min": [
        0.0023920859675854445,
        0.002392374910414219
      ],
      "type": "VEC2"
    },
    {
      "bufferView": 0,
      "byteOffset": 165240,
      "componentType": 5125,
      "count": 11331,
      "type": "SCALAR"
    },
    {
      "bufferView": 2,
      "byteOffset": 455856,
      "componentType": 5126,
      "count": 467,
      "max": [
        -0.020197153091430664,
        2.7093756198883057,
        1.5557817220687866
      ],
      "min": [
        -1.4622974395751953,
        2.6484880447387695,
        0.3203817903995514
      ],
      "type": "VEC3"
    },
    {
      "bufferView": 2,
      "byteOffset": 461460,
      "componentType": 5126,
      "count": 467,
      "max": [
        0.983108401298523,
        0.9979119300842285,
        0.998734712600708
      ],
      "min": [
        -0.9831082820892334,
        -0.13326101005077362,
        -0.9854108095169067
      ],
      "type": "VEC3"
    },
    {
      "bufferView": 3,
      "byteOffset": 303904,
      "componentType": 5126,
      "count": 467,
      "max": [
        0.9991417527198792,
        0.9995993971824646,
        0.999790608882904,
        1.0
      ],
      "min": [
        -0.9991430044174194,
        -0.9996010065078735,
        -0.9999488592147827,
        -1.0
      ],
      "type": "VEC4"
    },
    {
      "bufferView": 1,
      "byteOffset": 151952,
      "componentType": 5126,
      "count": 467,
      "max": [
        0.9967526197433472,
        0.9878379106521606
      ],
      "min": [
        0.002400772413238883,
        0.0023933053016662598
      ],
      "type": "VEC2"
    },
    {
      "bufferView": 0,
      "byteOffset": 210564,
      "componentType": 5125,
      "count": 1035,
      "type": "SCALAR"
    },
    {
      "bufferView": 2,
      "byteOffset": 467064,
      "componentType": 5126,
      "count": 112,
      "max": [
        -0.11662596464157104,
        2.7093756198883057,
        0.5164004564285278
      ],
      "min": [
        -1.3658686876296997,
        2.680777072906494,
        0.3203817903995514
      ],
      "type": "VEC3"
    },
    {
      "bufferView": 2,
      "byteOffset": 468408,
      "componentType": 5126,
      "count": 112,
      "max": [
        0.9831070303916931,
        0.9979118704795837,
        0.9989405274391174
      ],
      "min": [
        -0.983106791973114,
        -0.8866896033287048,
        -0.9909334182739258
      ],
      "type": "VEC3"
    },
    {
      "bufferView": 3,
      "byteOffset": 311376,
      "componentType": 5126,
      "count": 112,
      "max": [
        0.998197615146637,
        0.9838560819625854,
        0.999715268611908,
        1.0
      ],
      "min": [
        -0.998195230960846,
        -0.9976751804351807,
        -0.999715268611908,
        -1.0
      ],
      "type": "VEC4"
    },
    {
      "bufferView": 1,
      "byteOffset": 155688,
      "componentType": 5126,
      "count": 112,
      "max": [
        0.9923270344734192,
        0.9858365654945374
      ],
      "min": [
        0.31473445892333984,
        0.45285817980766296
      ],
      "type": "VEC2"
    },
    {
      "bufferView": 0,
      "byteOffset": 214704,
      "componentType": 5125,
      "count": 252,
      "type": "SCALAR"
    },
    {
      "bufferView": 2,
      "byteOffset": 469752,
      "componentType": 5126,
      "count": 16,
      "max": [
        -0.05596637725830078,
        -3.5366671085357666,
        0.5197299718856812
      ],
      "min": [
        -1.426527976989746,
        -3.6023616790771484,
        0.23112627863883972
      ],
      "type": "VEC3"
    },
    {
      "bufferView": 2,
      "byteOffset": 469944,
      "componentType": 5126,
      "count": 16,
      "max": [
        0.3350752592086792,
        -0.9032653570175171,
        0.05637763440608978
      ],
      "min": [
        -0.3350740671157837,
        -0.9973046779632568,
        -0.29284852743148804
      ],
      "type": "VEC3"
    },
    {
      "bufferView": 3,
      "byteOffset": 313168,
      "componentType": 5126,
      "count": 16,
      "max": [
        0.11285848170518875,
        0.335139662027359,
        0.9983766078948975,
        1.0
      ],
      "min": [
        -0.9988152384757996,
        -0.33514100313186646,
        -0.04195645824074745,
        1.0
      ],
      "type": "VEC4"
    },
    {
      "bufferView": 1,
      "byteOffset": 156584,
      "componentType": 5126,
      "count": 16,
      "max": [
        0.9414023160934448,
        0.6851596236228943
      ],
      "min": [
        0.7478387355804443,
        0.3138837218284607
      ],
      "type": "VEC2"
    },
    {
      "bufferView": 0,
      "byteOffset": 215712,
      "componentType": 5125,
      "count": 24,
      "type": "SCALAR"
    }
  ],
  "asset": {
    "extras": {
      "author": "Batuhan13 (https://sketchfab.com/Batuhan13)",
      "license": "CC-BY-4.0 (http://creativecommons.org/licenses/by/4.0/)",
      "source": "https://sketchfab.com/3d-models/breaking-bad-rv-72208a74546e4e3590bd2acf43dc330a",
      "title": "Breaking Bad RV"
    },
    "generator": "Sketchfab-12.65.0",
    "version": "2.0"
  },
  "bufferViews": [
    {
      "buffer": 0,
      "byteLength": 215808,
      "name": "floatBufferViews",
      "target": 34963
    },
    {
      "buffer": 0,
      "byteLength": 156712,
      "byteOffset": 215808,
      "byteStride": 8,
      "name": "floatBufferViews",
      "target": 34962
    },
    {
      "buffer": 0,
      "byteLength": 470136,
      "byteOffset": 372520,
      "byteStride": 12,
      "name": "floatBufferViews",
      "target": 34962
    },
    {
      "buffer": 0,
      "byteLength": 313424,
      "byteOffset": 842656,
      "byteStride": 16,
      "name": "floatBufferViews",
      "target": 34962
    }
  ],
  "buffers": [
    {
      "byteLength": 1156080,
      "uri": "scene.bin"
    }
  ],
  "images": [
    {
      "uri": "textures/Tire.001_metallicRoughness.png"
    },
    {
      "uri": "textures/Tire.001_normal.png"
    },
    {
      "uri": "textures/Metal.001_baseColor.png"
    },
    {
      "uri": "textures/Metal.001_metallicRoughness.png"
    },
    {
      "uri": "textures/Metal.001_normal.png"
    },
    {
      "uri": "textures/Glass.001_baseColor.png"
    },
    {
      "uri": "textures/Glass.001_metallicRoughness.png"
    },
    {
      "uri": "textures/Glass.001_normal.png"
    },
    {
      "uri": "textures/Light.001_normal.png"
    },
    {
      "uri": "textures/Material.002_baseColor.png"
    },
    {
      "uri": "textures/Material.002_metallicRoughness.png"
    },
    {
      "uri": "textures/Material.002_normal.png"
    },
    {
      "uri": "textures/Material.003_baseColor.png"
    },
    {
      "uri": "textures/Material.003_metallicRoughness.png"
    },
    {
      "uri": "textures/Material.003_normal.png"
    },
    {
      "uri": "textures/LightRed.001_normal.png"
    },
    {
      "uri": "textures/LightBackWhite.001_normal.png"
    },
    {
      "uri": "textures/LightV2.001_normal.png"
    }
  ],
  "materials": [
    {
      "doubleSided": true,
      "name": "Tire.001",
      "normalTexture": {
        "index": 1
      },
      "pbrMetallicRoughness": {
        "baseColorFactor": [
          0.0528179,
          0.0528179,
          0.0528179,
          1.0
        ],
        "metallicRoughnessTexture": {
          "index": 0
        }
      }
    },
    {
      "doubleSided": true,
      "name": "Metal.001",
      "normalTexture": {
        "index": 4
      },
      "pbrMetallicRoughness": {
        "baseColorTexture": {
          "index": 2
        },
        "metallicRoughnessTexture": {
          "index": 3
        },
        "roughnessFactor": 0.2198484940962358
      }
    },
    {
      "doubleSided": true,
      "name": "Glass.001",
      "normalTexture": {
        "index": 7,
        "scale": 0.2925757668235085
      },
      "pbrMetallicRoughness": {
        "baseColorTexture": {
          "index": 5
        },
        "metallicRoughnessTexture": {
          "index": 6
        },
        "roughnessFactor": 0.0
      }
    },
    {
      "doubleSided": true,
      "emissiveFactor": [
        1.0,
        0.24870061848968492,
        0.0
      ],
      "name": "Light.001",
      "normalTexture": {
        "index": 8
      },
      "pbrMetallicRoughness": {
        "baseColorFactor": [
          0.8,
          0.8,
          0.8,
          1.0
        ],
        "metallicFactor": 0.0,
        "roughnessFactor": 0.8040408205773457
      }
    },
    {
      "doubleSided": true,
      "name": "Material.002",
      "normalTexture": {
        "index": 11
      },
      "pbrMetallicRoughness": {
        "baseColorTexture": {
          "index": 9
        },
        "metallicRoughnessTexture": {
          "index": 10
        },
        "roughnessFactor": 0.46227273652047823
      }
    },
    {
      "doubleSided": true,
      "name": "Material.003",
      "normalTexture": {
        "index": 14
      },
      "pbrMetallicRoughness": {
        "baseColorTexture": {
          "index": 12
        },
        "metallicRoughnessTexture": {
          "index": 13
        },
        "roughnessFactor": 0.3107575850053267
      }
    },
    {
      "doubleSided": true,
      "emissiveFactor": [
        1.0,
        0.0,
        0.0
      ],
      "name": "LightRed.001",
      "normalTexture": {
        "index": 15
      },
      "pbrMetallicRoughness": {
        "baseColorFactor": [
          0.8,
          0.8,
          0.8,
          1.0
        ],
        "metallicFactor": 0.0,
        "roughnessFactor": 0.8040408205773457
      }
    },
    {
      "doubleSided": true,
      "emissiveFactor": [
        1.0,
        1.0,
        1.0
      ],
      "name": "LightBackWhite.001",
      "normalTexture": {
        "index": 16
      },
      "pbrMetallicRoughness": {
        "baseColorFactor": [
          0.8,
          0.8,
          0.8,
          1.0
        ],
        "metallicFactor": 0.0,
        "roughnessFactor": 0.8040408205773457
      }
    },
    {
      "doubleSided": true,
      "emissiveFactor": [
        1.0,
        1.0,
        1.0
      ],
      "name": "LightV2.001",
      "normalTexture": {
        "index": 17
      },
      "pbrMetallicRoughness": {
        "baseColorFactor": [
          0.8,
          0.8,
          0.8,
          1.0
        ],
        "metallicFactor": 0.0,
        "roughnessFactor": 0.8040408205773457
      }
    }
  ],
  "meshes": [
    {
      "name": "Cube.000_Tire.001_0",
      "primitives": [
        {
          "attributes": {
            "NORMAL": 1,
            "POSITION": 0,
            "TANGENT": 2,
            "TEXCOORD_0": 3
          },
          "indices": 4,
          "material": 0,
          "mode": 4
        }
      ]
    },
    {
      "name": "Cube.000_Metal.001_0",
      "primitives": [
        {
          "attributes": {
            "NORMAL": 6,
            "POSITION": 5,
            "TANGENT": 7,
            "TEXCOORD_0": 8
          },
          "indices": 9,
          "material": 1,
          "mode": 4
        }
      ]
    },
    {
      "name": "Cube.000_Glass.001_0",
      "primitives": [
        {
          "attributes": {
            "NORMAL": 11,
            "POSITION": 10,
            "TANGENT": 12,
            "TEXCOORD_0": 13
          },
          "indices": 14,
          "material": 2,
          "mode": 4
        }
      ]
    },
    {
      "name": "Cube.000_Light.001_0",
      "primitives": [
        {
          "attributes": {
            "NORMAL": 16,
            "POSITION": 15,
            "TANGENT": 17,
            "TEXCOORD_0": 18
          },
          "indices": 19,
          "material": 3,
          "mode": 4
        }
      ]
    },
    {
      "name": "Cube.000_Material.002_0",
      "primitives": [
        {
          "attributes": {
            "NORMAL": 21,
            "POSITION": 20,
            "TANGENT": 22,
            "TEXCOORD_0": 23
          },
          "indices": 24,
          "material": 4,
          "mode": 4
        }
      ]
    },
    {
      "name": "Cube.000_Material.003_0",
      "primitives": [
        {
          "attributes": {
            "NORMAL": 26,
            "POSITION": 25,
            "TANGENT": 27,
            "TEXCOORD_0": 28
          },
          "indices": 29,
          "material": 5,
          "mode": 4
        }
      ]
    },
    {
      "name": "Cube.000_LightRed.001_0",
      "primitives": [
        {
          "attributes": {
            "NORMAL": 31,
            "POSITION": 30,
            "TANGENT": 32,
            "TEXCOORD_0": 33
          },
          "indices": 34,
          "material": 6,
          "mode": 4
        }
      ]
    },
    {
      "name": "Cube.000_LightBackWhite.001_0",
      "primitives": [
        {
          "attributes": {
            "NORMAL": 36,
            "POSITION": 35,
            "TANGENT": 37,
            "TEXCOORD_0": 38
          },
          "indices": 39,
          "material": 7,
          "mode": 4
        }
      ]
    },
    {
      "name": "Cube.000_LightV2.001_0",
      "primitives": [
        {
          "attributes": {
            "NORMAL": 41,
            "POSITION": 40,
            "TANGENT": 42,
            "TEXCOORD_0": 43
          },
          "indices": 44,
          "material": 8,
          "mode": 4
        }
      ]
    }
  ],
  "nodes": [
    {
      "children": [
        1
      ],
      "matrix": [
        1.0,
        0.0,
        0.0,
        0.0,
        0.0,
        2.220446049250313e-16,
        -1.0,
        0.0,
        0.0,
        1.0,
        2.220446049250313e-16,
        0.0,
        0.0,
        0.0,
        0.0,
        1.0
      ],
      "name": "Sketchfab_model"
    },
    {
      "children": [
        2
      ],
      "matrix": [
        1.0,
        0.0,
        0.0,
        0.0,
        0.0,
        0.0,
        1.0,
        0.0,
        0.0,
        -1.0,
        0.0,
        0.0,
        0.0,
        0.0,
        0.0,
        1.0
      ],
      "name": "RV.fbx"
    },
    {
      "children": [
        3
      ],
      "name": "RootNode"
    },
    {
      "children": [
        4,
        5,
        6,
        7,
        8,
        9,
        10,
        11,
        12
      ],
      "matrix": [
        100.0,
        0.0,
        0.0,
        0.0,
        0.0,
        -1.629206793918314e-05,
        -99.99999999999868,
        0.0,
        0.0,
        99.99999999999868,
        -1.629206793918314e-05,
        0.0,
        74.5262222290039,
        -72.5275650024414,
        -54.069580078125,
        1.0
      ],
      "name": "Cube.000"
    },
    {
      "mesh": 0,
      "name": "Cube.000_Tire.001_0"
    },
    {
      "mesh": 1,
      "name": "Cube.000_Metal.001_0"
    },
    {
      "mesh": 2,
      "name": "Cube.000_Glass.001_0"
    },
    {
      "mesh": 3,
      "name": "Cube.000_Light.001_0"
    },
    {
      "mesh": 4,
      "name": "Cube.000_Material.002_0"
    },
    {
      "mesh": 5,
      "name": "Cube.000_Material.003_0"
    },
    {
      "mesh": 6,
      "name": "Cube.000_LightRed.001_0"
    },
    {
      "mesh": 7,
      "name": "Cube.000_LightBackWhite.001_0"
    },
    {
      "mesh": 8,
      "name": "Cube.000_LightV2.001_0"
    }
  ],
  "samplers": [
    {
      "magFilter": 9729,
      "minFilter": 9987,
      "wrapS": 10497,
      "wrapT": 10497
    }
  ],
  "scene": 0,
  "scenes": [
    {
      "name": "Sketchfab_Scene",
      "nodes": [
        0
      ]
    }
  ],
  "textures": [
    {
      "sampler": 0,
      "source": 0
    },
    {
      "sampler": 0,
      "source": 1
    },
    {
      "sampler": 0,
      "source": 2
    },
    {
      "sampler": 0,
      "source": 3
    },
    {
      "sampler": 0,
      "source": 4
    },
    {
      "sampler": 0,
      "source": 5
    },
    {
      "sampler": 0,
      "source": 6
    },
    {
      "sampler": 0,
      "source": 7
    },
    {
      "sampler": 0,
      "source": 8
    },
    {
      "sampler": 0,
      "source": 9
    },
    {
      "sampler": 0,
      "source": 10
    },
    {
      "sampler": 0,
      "source": 11
    },
    {
      "sampler": 0,
      "source": 12
    },
    {
      "sampler": 0,
      "source": 13
    },
    {
      "sampler": 0,
      "source": 14
    },
    {
      "sampler": 0,
      "source": 15
    },
    {
      "sampler": 0,
      "source": 16
    },
    {
      "sampler": 0,
      "source": 17
    }
  ]
}
